<svg width="100" height="100" viewBox="0 0 100 100" fill="none" xmlns="http://www.w3.org/2000/svg">
<path d="M20.4677 60.4353C19.5888 60.4353 18.7099 59.9959 18.2705 58.6778C17.3916 55.6023 16.9521 52.5267 16.9521 49.4511C16.9521 31.437 31.8931 16.4985 49.9102 16.4985C52.9862 16.4985 56.0623 16.9379 59.1384 17.8166C60.4567 18.256 60.8962 19.5741 60.4567 20.4529C60.0173 21.771 58.699 22.2103 57.8201 21.771C55.1834 20.8922 52.5468 20.4529 49.9102 20.4529C34.0903 20.4529 21.3466 33.1945 21.3466 49.0117C21.3466 51.6479 21.786 54.2842 22.6649 56.9204C23.1043 58.2385 22.2254 59.1172 21.3466 59.5566C20.9071 60.4353 20.4677 60.4353 20.4677 60.4353Z" fill="#231815"/>
<path d="M47.2712 78.4504C48.1501 78.4504 49.029 78.4504 49.9079 78.4504C65.7277 78.4504 78.4715 65.7087 78.4715 49.8915C78.4715 49.0128 78.4715 48.134 78.4715 47.2553L79.7898 38.9073C80.6687 38.9073 81.5475 39.7861 81.5475 40.6648C82.4264 43.7404 82.8659 46.8159 82.8659 49.8915C82.8659 67.9056 67.9249 82.8441 49.9079 82.8441C46.8318 82.8441 43.7557 82.4047 40.6796 81.526C39.8008 81.0866 39.3613 80.6472 38.9219 79.7685L47.2712 78.4504Z" fill="#231815"/>
<path d="M24.417 87.2424C20.9015 87.2424 17.8254 86.3636 16.0676 84.1668C11.2338 79.3338 12.1127 69.6677 18.7043 57.3654C19.1437 56.4867 20.0226 56.0473 20.9015 56.0473C21.7803 56.0473 22.6592 56.926 22.6592 57.8048C25.2959 67.0315 32.7663 74.5007 41.9946 77.1369C42.8734 77.5763 43.3129 78.0157 43.7523 78.8944C43.7523 79.7731 43.3129 80.6519 42.434 81.0912C35.403 85.0455 29.2508 87.2424 24.417 87.2424ZM20.0226 63.9559C16.5071 71.8645 16.0676 78.455 18.7043 81.0912C21.3409 83.7274 27.9325 83.2881 35.8424 79.7731C28.8114 76.2582 23.5381 70.9858 20.0226 63.9559Z" fill="#231815"/>
<path d="M79.3489 43.7472C78.0306 43.7472 77.5912 42.8685 77.1517 41.9898C74.5151 32.7631 67.0446 25.2938 57.8164 22.6576C56.9375 22.2183 56.498 21.7789 56.0586 20.9002C56.0586 20.0214 56.498 19.1427 57.3769 18.7033C69.2418 12.1128 79.3489 11.2341 84.1828 16.0671C89.0166 20.9002 88.1377 30.5662 81.5461 42.8685C81.1067 43.3079 80.2278 43.7472 79.3489 43.7472ZM63.9685 20.0214C70.9996 23.097 76.7123 28.8088 79.7884 35.8386C83.3039 27.93 83.7433 21.3395 81.1067 18.7033C78.0306 16.0671 71.8784 16.5065 63.9685 20.0214Z" fill="#231815"/>
<path d="M81.53 40.6782C81.53 41.1175 81.53 41.9963 81.53 42.4356C77.575 49.9049 71.4229 57.3741 64.3918 64.404C57.3608 71.4339 49.8903 77.1457 42.4199 81.5394C41.9804 81.5394 41.541 81.9787 41.541 81.9787H41.1016L41.541 77.5851C48.1326 73.6308 55.1636 68.3583 61.7552 61.7678C68.3468 55.1773 73.6201 48.1474 77.575 41.5569L81.53 40.6782Z" fill="#231815"/>
</svg>
