<svg width="20" height="20" viewBox="0 0 20 20" fill="none" xmlns="http://www.w3.org/2000/svg">
<path d="M5.90706 3.96902L5.07373 4.61948C3.80984 5.606 3.1779 6.09927 2.83895 6.79476C2.5 7.49026 2.5 8.2937 2.5 9.90057V11.6432C2.5 14.7971 2.5 16.3741 3.47631 17.3539C4.45262 18.3337 6.02397 18.3337 9.16667 18.3337H10.8333C13.976 18.3337 15.5474 18.3337 16.5237 17.3539C17.5 16.3741 17.5 14.7971 17.5 11.6432V9.90057C17.5 8.2937 17.5 7.49026 17.1611 6.79476C16.8221 6.09927 16.1902 5.606 14.9263 4.61948L14.0929 3.96902C12.1268 2.43434 11.1437 1.66699 10 1.66699C8.85631 1.66699 7.87323 2.43433 5.90706 3.96902Z" stroke="white" stroke-width="2.5" stroke-linejoin="round"/>
<path d="M12.5 13.75H14.1667V15.4167M12.5 13.75V15.4167H14.1667M12.5 13.75L14.1667 15.4167" stroke="white" stroke-width="2.5" stroke-linejoin="round"/>
</svg>
